<svg width="96" height="96" viewBox="10 10 76 76" fill="none" xmlns="http://www.w3.org/2000/svg">
<path fill-rule="evenodd" clip-rule="evenodd" d="M48.0595 37.1747C50.5232 37.1747 52.5204 32.4346 52.5204 26.5874C52.5204 20.7401 50.5232 16 48.0595 16C45.5958 16 43.5985 20.7401 43.5985 26.5874C43.5985 32.4346 45.5958 37.1747 48.0595 37.1747ZM48.0595 36.8178C49.2749 36.8178 50.2602 34.9005 50.2602 32.5353C50.2602 30.1701 49.2749 28.2528 48.0595 28.2528C46.844 28.2528 45.8587 30.1701 45.8587 32.5353C45.8587 34.9005 46.844 36.8178 48.0595 36.8178Z" fill="url(#km0)"/>
<path fill-rule="evenodd" clip-rule="evenodd" d="M48.0595 58.8253C50.5232 58.8253 52.5204 63.5654 52.5204 69.4126C52.5204 75.2599 50.5232 80 48.0595 80C45.5958 80 43.5985 75.2599 43.5985 69.4126C43.5985 63.5654 45.5958 58.8253 48.0595 58.8253ZM48.0595 59.1822C49.2749 59.1822 50.2602 61.0995 50.2602 63.4647C50.2602 65.8299 49.2749 67.7472 48.0595 67.7472C46.844 67.7472 45.8587 65.8299 45.8587 63.4647C45.8587 61.0995 46.844 59.1822 48.0595 59.1822Z" fill="url(#km1)"/>
<path fill-rule="evenodd" clip-rule="evenodd" d="M58.8253 47.9404C58.8253 45.4767 63.5654 43.4794 69.4126 43.4794C75.2599 43.4794 80 45.4767 80 47.9404C80 50.4041 75.2599 52.4014 69.4126 52.4014C63.5654 52.4014 58.8253 50.4041 58.8253 47.9404ZM59.1822 47.9404C59.1822 46.725 61.0995 45.7397 63.4647 45.7397C65.8299 45.7397 67.7472 46.725 67.7472 47.9404C67.7472 49.1558 65.8299 50.1411 63.4647 50.1411C61.0995 50.1411 59.1822 49.1558 59.1822 47.9404Z" fill="url(#km2)"/>
<path fill-rule="evenodd" clip-rule="evenodd" d="M37.1747 47.9404C37.1747 45.4767 32.4346 43.4794 26.5874 43.4794C20.7401 43.4794 16 45.4767 16 47.9404C16 50.4041 20.7401 52.4014 26.5874 52.4014C32.4346 52.4014 37.1747 50.4041 37.1747 47.9404ZM36.8178 47.9404C36.8178 46.725 34.9005 45.7397 32.5353 45.7397C30.1701 45.7397 28.2528 46.725 28.2528 47.9404C28.2528 49.1558 30.1701 50.1411 32.5353 50.1411C34.9005 50.1411 36.8178 49.1558 36.8178 47.9404Z" fill="url(#km3)"/>
<path fill-rule="evenodd" clip-rule="evenodd" d="M40.3875 40.3033C42.1297 38.5612 40.1901 33.7971 36.0555 29.6625C31.9209 25.5279 27.1569 23.5884 25.4148 25.3305C23.6726 27.0726 25.6121 31.8366 29.7468 35.9713C33.8814 40.1059 38.6454 42.0454 40.3875 40.3033ZM40.1352 40.0509C40.9946 39.1915 40.3356 37.139 38.6631 35.4666C36.9907 33.7941 34.9382 33.1351 34.0788 33.9945C33.2193 34.854 33.8784 36.9064 35.5508 38.5789C37.2233 40.2513 39.2757 40.9104 40.1352 40.0509Z" fill="url(#km4)"/>
<path fill-rule="evenodd" clip-rule="evenodd" d="M55.6966 55.6126C57.4387 53.8705 62.2028 55.81 66.3374 59.9446C70.472 64.0792 72.4115 68.8433 70.6694 70.5854C68.9273 72.3275 64.1632 70.388 60.0286 66.2534C55.894 62.1187 53.9545 57.3547 55.6966 55.6126ZM55.949 55.8649C56.8084 55.0055 58.8609 55.6645 60.5333 57.337C62.2058 59.0094 62.8648 61.0619 62.0054 61.9213C61.1459 62.7808 59.0934 62.1217 57.421 60.4493C55.7486 58.7769 55.0895 56.7244 55.949 55.8649Z" fill="url(#km5)"/>
<path fill-rule="evenodd" clip-rule="evenodd" d="M55.6126 40.3033C53.8705 38.5612 55.81 33.7971 59.9446 29.6625C64.0792 25.5279 68.8433 23.5884 70.5854 25.3305C72.3275 27.0726 70.388 31.8366 66.2534 35.9713C62.1187 40.1059 57.3547 42.0454 55.6126 40.3033ZM55.8649 40.0509C55.0055 39.1915 55.6645 37.139 57.337 35.4666C59.0094 33.7941 61.0619 33.1351 61.9213 33.9945C62.7808 34.854 62.1217 36.9064 60.4493 38.5789C58.7769 40.2513 56.7244 40.9104 55.8649 40.0509Z" fill="url(#km6)"/>
<path fill-rule="evenodd" clip-rule="evenodd" d="M40.3034 55.6126C38.5613 53.8705 33.7972 55.81 29.6626 59.9446C25.528 64.0792 23.5885 68.8433 25.3306 70.5854C27.0727 72.3275 31.8368 70.388 35.9714 66.2534C40.106 62.1187 42.0455 57.3547 40.3034 55.6126ZM40.051 55.8649C39.1916 55.0055 37.1391 55.6645 35.4667 57.337C33.7942 59.0094 33.1352 61.0619 33.9946 61.9213C34.8541 62.7808 36.9066 62.1217 38.579 60.4493C40.2514 58.7769 40.9105 56.7244 40.051 55.8649Z" fill="url(#km7)"/>
<path d="M48.001 31.3457C47.7949 35.542 46.0895 39.6783 42.8847 42.8831C39.6795 46.0882 35.5425 47.7936 31.3457 47.9994C35.5424 48.2052 39.6794 49.9106 42.8845 53.1157C46.0896 56.3208 47.7951 60.4576 48.0009 64.6542C48.2067 60.4575 49.9122 56.3207 53.1174 53.1155C56.322 49.911 60.4582 48.2056 64.6542 47.9993C60.4582 47.7931 56.322 46.0877 53.1174 42.8831C49.9125 39.6783 48.2071 35.542 48.001 31.3457Z" fill="url(#km8)"/>
<defs>
<linearGradient id="km0" x1="48" y1="16" x2="48" y2="80" gradientUnits="userSpaceOnUse">
<stop stop-color="#00C2FF"/><stop offset="1" stop-color="#3CB88B"/>
</linearGradient>
<linearGradient id="km1" x1="48" y1="16" x2="48" y2="80" gradientUnits="userSpaceOnUse">
<stop stop-color="#00C2FF"/><stop offset="1" stop-color="#3CB88B"/>
</linearGradient>
<linearGradient id="km2" x1="48" y1="16" x2="48" y2="80" gradientUnits="userSpaceOnUse">
<stop stop-color="#00C2FF"/><stop offset="1" stop-color="#3CB88B"/>
</linearGradient>
<linearGradient id="km3" x1="48" y1="16" x2="48" y2="80" gradientUnits="userSpaceOnUse">
<stop stop-color="#00C2FF"/><stop offset="1" stop-color="#3CB88B"/>
</linearGradient>
<linearGradient id="km4" x1="48" y1="16" x2="48" y2="80" gradientUnits="userSpaceOnUse">
<stop stop-color="#00C2FF"/><stop offset="1" stop-color="#3CB88B"/>
</linearGradient>
<linearGradient id="km5" x1="48" y1="16" x2="48" y2="80" gradientUnits="userSpaceOnUse">
<stop stop-color="#00C2FF"/><stop offset="1" stop-color="#3CB88B"/>
</linearGradient>
<linearGradient id="km6" x1="48" y1="16" x2="48" y2="80" gradientUnits="userSpaceOnUse">
<stop stop-color="#00C2FF"/><stop offset="1" stop-color="#3CB88B"/>
</linearGradient>
<linearGradient id="km7" x1="48" y1="16" x2="48" y2="80" gradientUnits="userSpaceOnUse">
<stop stop-color="#00C2FF"/><stop offset="1" stop-color="#3CB88B"/>
</linearGradient>
<linearGradient id="km8" x1="48" y1="16" x2="48" y2="80" gradientUnits="userSpaceOnUse">
<stop stop-color="#00C2FF"/><stop offset="1" stop-color="#3CB88B"/>
</linearGradient>
</defs>
</svg>
